<svg width="328" height="46" viewBox="0 0 2678 376" fill="none" xmlns="http://www.w3.org/2000/svg">
<path fill-rule="evenodd" clip-rule="evenodd" d="M108 33C108 14.7746 122.775 0 141 0H252C270.225 0 285 14.7746 285 33V55H404.951L404.864 34.4791L459.998 66L405.133 97.987L405.044 77H285V100C285 118.225 270.225 133 252 133H199.481L186.705 194.736L171.495 181.189L117.495 243H144C162.225 243 177 257.775 177 276V306.111L223.865 278.788L223.951 299H352V276C352 257.775 366.775 243 385 243H440.899L453.727 181.007L469.924 195.434L524.469 133H493C474.775 133 460 118.225 460 100V33C460 14.7746 474.775 0 493 0H604C622.225 0 637 14.7746 637 33V100C637 118.225 622.225 133 604 133H553.682L486.353 210.067L501.152 223.248L441.457 243H496C514.225 243 529 257.775 529 276V343C529 361.225 514.225 376 496 376H385C366.775 376 352 361.225 352 343V321H224.044L224.134 342.296L177 315.349V343C177 361.225 162.225 376 144 376H33C14.7746 376 0 361.225 0 343V276C0 257.775 14.7746 243 33 243H88.2814L155.066 166.556L139.281 152.496L198.201 133H141C122.775 133 108 118.225 108 100V33ZM726.625 227.676C726.625 232.559 728.904 235 733.461 235H748.305C752.862 235 755.141 232.559 755.141 227.676V177.383H802.699C807.582 177.383 810.023 175.267 810.023 171.035V159.512C810.023 155.28 807.582 153.164 802.699 153.164H755.141V119.18H810.707C815.59 119.18 818.031 117.064 818.031 112.832V101.309C818.031 97.0768 815.59 94.9609 810.707 94.9609H733.461C728.904 94.9609 726.625 97.4023 726.625 102.285V227.676ZM839.125 229.141C839.125 233.047 841.078 235 844.984 235H860.609C864.516 235 866.469 233.047 866.469 229.141V138.32C866.469 134.414 864.516 132.461 860.609 132.461H844.984C841.078 132.461 839.125 134.414 839.125 138.32V229.141ZM839.125 111.562C839.125 115.469 841.078 117.422 844.984 117.422H860.609C864.516 117.422 866.469 115.469 866.469 111.562V99.0625C866.469 95.1562 864.516 93.2031 860.609 93.2031H844.984C841.078 93.2031 839.125 95.1562 839.125 99.0625V111.562ZM893.031 229.141C893.031 233.047 894.984 235 898.891 235H914.516C918.422 235 920.375 233.047 920.375 229.141V190.664C920.375 173.932 922.1 162.93 925.551 157.656C929.001 152.318 934.145 149.648 940.98 149.648C947.426 149.648 951.625 151.504 953.578 155.215C955.531 158.926 956.508 167.878 956.508 182.07V229.141C956.508 233.047 958.461 235 962.367 235H977.992C981.898 235 983.852 233.047 983.852 229.141V175.039C983.852 158.112 980.531 146.458 973.891 140.078C967.25 133.698 958.852 130.508 948.695 130.508C942.185 130.508 936.618 131.484 931.996 133.438C927.374 135.326 923.565 138.841 920.57 143.984H920.18V138.32C920.18 134.414 918.227 132.461 914.32 132.461H898.891C894.984 132.461 893.031 134.414 893.031 138.32V229.141ZM1010.22 229.141C1010.22 233.047 1012.17 235 1016.08 235H1031.7C1035.61 235 1037.56 233.047 1037.56 229.141V138.32C1037.56 134.414 1035.61 132.461 1031.7 132.461H1016.08C1012.17 132.461 1010.22 134.414 1010.22 138.32V229.141ZM1010.22 111.562C1010.22 115.469 1012.17 117.422 1016.08 117.422H1031.7C1035.61 117.422 1037.56 115.469 1037.56 111.562V99.0625C1037.56 95.1562 1035.61 93.2031 1031.7 93.2031H1016.08C1012.17 93.2031 1010.22 95.1562 1010.22 99.0625V111.562ZM1054.95 147.109C1054.95 150.365 1056.87 151.992 1060.71 151.992H1067.35V208.73C1067.35 220.71 1070.64 228.62 1077.21 232.461C1083.79 236.302 1091.73 238.223 1101.04 238.223C1104.82 238.223 1108.56 237.799 1112.27 236.953C1116.05 236.172 1119.01 235.293 1121.16 234.316C1123.43 233.275 1124.28 231.647 1123.7 229.434L1120.77 218.301C1120.05 215.762 1118.55 215.013 1116.27 216.055C1114.84 216.706 1112.86 217.389 1110.32 218.105C1107.78 218.757 1105.5 219.082 1103.48 219.082C1099.51 219.082 1097.04 217.65 1096.06 214.785C1095.15 211.855 1094.69 207.07 1094.69 200.43V151.992H1110.51C1114.35 151.992 1116.27 150.365 1116.27 147.109V137.344C1116.27 134.089 1114.35 132.461 1110.51 132.461H1094.69V110C1094.69 106.094 1092.74 104.141 1088.83 104.141H1082C1080.04 104.141 1078.35 105.378 1076.92 107.852L1069.4 121.035C1068.03 123.444 1067.35 126.113 1067.35 129.043V132.461H1060.71C1056.87 132.461 1054.95 134.089 1054.95 137.344V147.109ZM1148.89 144.766C1140.69 154.271 1136.59 167.259 1136.59 183.73C1136.59 200.202 1140.56 213.19 1148.5 222.695C1156.44 232.201 1169.76 236.953 1188.44 236.953C1199.96 236.953 1208.4 235.781 1213.73 233.438C1219.07 231.094 1223.73 227.546 1227.7 222.793C1230.43 219.538 1229.88 216.738 1226.04 214.395L1216.27 208.438C1213.02 206.484 1210.28 206.94 1208.07 209.805C1206.12 212.279 1203.71 214.232 1200.84 215.664C1197.98 217.096 1193.85 217.812 1188.44 217.812C1182.78 217.812 1177.8 216.413 1173.5 213.613C1169.2 210.814 1166.53 204.01 1165.49 193.203H1229.95C1233.59 193.203 1235.41 191.25 1235.41 187.344C1235.41 167.422 1231.18 152.969 1222.72 143.984C1214.26 135 1201.3 130.508 1183.85 130.508C1168.81 130.508 1157.16 135.26 1148.89 144.766ZM1208.07 173.672H1165.59C1165.92 166.25 1167.87 160.423 1171.45 156.191C1175.03 151.895 1179.88 149.746 1186 149.746C1193.68 149.746 1199.28 151.992 1202.8 156.484C1206.31 160.911 1208.07 166.641 1208.07 173.672ZM1326.14 215.273C1324.05 218.398 1325.03 221.491 1329.07 224.551C1335.45 229.368 1342.18 232.852 1349.28 235C1356.38 237.214 1365.59 238.32 1376.92 238.32C1384.6 238.32 1392.48 237.311 1400.55 235.293C1408.69 233.34 1416.08 228.978 1422.72 222.207C1429.36 215.371 1432.68 206.745 1432.68 196.328C1432.68 189.297 1431.54 183.242 1429.26 178.164C1427.05 173.086 1424.22 169.082 1420.77 166.152C1417.32 163.223 1412.33 160.293 1405.82 157.363C1401.14 155.28 1396.03 153.392 1390.49 151.699C1384.96 149.941 1378.68 147.923 1371.64 145.645C1369.37 144.928 1367.12 144.049 1364.91 143.008C1362.69 141.901 1360.67 140.273 1358.85 138.125C1357.03 135.911 1356.12 133.047 1356.12 129.531C1356.12 125.885 1357.35 122.826 1359.83 120.352C1362.3 117.878 1365.13 116.315 1368.32 115.664C1371.58 115.013 1375.13 114.688 1378.97 114.688C1384.37 114.688 1389.55 115.892 1394.5 118.301C1399.51 120.71 1403.45 122.891 1406.31 124.844C1410.8 127.904 1414.39 127.611 1417.05 123.965L1424.96 113.32C1427.05 110.521 1426.04 107.396 1421.94 103.945C1417.77 100.43 1411.59 97.5 1403.38 95.1562C1395.24 92.8125 1387.33 91.6406 1379.65 91.6406C1371.9 91.6406 1364.22 92.5521 1356.61 94.375C1348.99 96.1979 1342.25 100.332 1336.39 106.777C1330.53 113.223 1327.6 120.97 1327.6 130.02C1327.6 137.637 1328.84 143.724 1331.31 148.281C1333.79 152.839 1337.27 156.94 1341.76 160.586C1346.25 164.232 1351.2 167.096 1356.61 169.18C1362.66 171.523 1368.78 173.542 1374.96 175.234C1381.21 176.862 1386.39 178.522 1390.49 180.215C1392.84 181.191 1395.11 182.396 1397.33 183.828C1399.54 185.26 1401.14 187.083 1402.11 189.297C1403.09 191.51 1403.58 194.082 1403.58 197.012C1403.58 201.113 1402.47 204.661 1400.26 207.656C1398.04 210.651 1394.82 212.669 1390.59 213.711C1386.36 214.753 1381.96 215.273 1377.41 215.273C1370.9 215.273 1364.68 213.939 1358.75 211.27C1352.89 208.535 1348.14 205.898 1344.5 203.359C1339.74 200.039 1336.13 200.234 1333.66 203.945L1326.14 215.273ZM1443.62 147.109C1443.62 150.365 1445.54 151.992 1449.38 151.992H1456.02V208.73C1456.02 220.71 1459.31 228.62 1465.88 232.461C1472.46 236.302 1480.4 238.223 1489.71 238.223C1493.49 238.223 1497.23 237.799 1500.94 236.953C1504.72 236.172 1507.68 235.293 1509.83 234.316C1512.11 233.275 1512.95 231.647 1512.37 229.434L1509.44 218.301C1508.72 215.762 1507.22 215.013 1504.95 216.055C1503.51 216.706 1501.53 217.389 1498.99 218.105C1496.45 218.757 1494.17 219.082 1492.15 219.082C1488.18 219.082 1485.71 217.65 1484.73 214.785C1483.82 211.855 1483.36 207.07 1483.36 200.43V151.992H1499.18C1503.02 151.992 1504.95 150.365 1504.95 147.109V137.344C1504.95 134.089 1503.02 132.461 1499.18 132.461H1483.36V110C1483.36 106.094 1481.41 104.141 1477.5 104.141H1470.67C1468.71 104.141 1467.02 105.378 1465.59 107.852L1458.07 121.035C1456.7 123.444 1456.02 126.113 1456.02 129.043V132.461H1449.38C1445.54 132.461 1443.62 134.089 1443.62 137.344V147.109ZM1543.91 179.336C1531.48 185.195 1525.26 194.635 1525.26 207.656C1525.26 216.706 1528.02 223.867 1533.56 229.141C1539.09 234.349 1547.2 236.953 1557.88 236.953C1562.37 236.953 1567.28 236.107 1572.62 234.414C1578.02 232.656 1582.65 229.922 1586.49 226.211H1586.68V229.141C1586.68 233.047 1588.44 235 1591.96 235H1607.97C1611.88 235 1613.83 233.047 1613.83 229.141V167.52C1613.83 155.345 1610.19 146.133 1602.89 139.883C1595.67 133.633 1585.28 130.508 1571.74 130.508C1563.73 130.508 1557.22 131.191 1552.21 132.559C1547.2 133.861 1543.16 135.26 1540.1 136.758C1537.11 138.255 1534.47 140.013 1532.19 142.031C1529.2 144.635 1528.71 147.174 1530.73 149.648L1538.83 159.609C1540.79 161.953 1543.26 161.823 1546.25 159.219C1547.95 157.786 1549.83 156.387 1551.92 155.02C1554.07 153.587 1556.57 152.35 1559.44 151.309C1562.37 150.202 1565.72 149.648 1569.5 149.648C1574.83 149.648 1579 150.885 1582 153.359C1584.99 155.833 1586.49 160.065 1586.49 166.055V169.961C1570.54 170.352 1556.35 173.477 1543.91 179.336ZM1555.53 213.027C1554.62 211.335 1554.16 209.349 1554.16 207.07C1554.16 204.206 1554.95 201.732 1556.51 199.648C1558.14 197.565 1560.8 195.547 1564.52 193.594C1568.23 191.641 1575.55 190.046 1586.49 188.809V210C1582.65 213.385 1579.16 215.534 1576.04 216.445C1572.91 217.357 1569.69 217.812 1566.37 217.812C1563.96 217.812 1561.78 217.422 1559.83 216.641C1557.88 215.859 1556.44 214.655 1555.53 213.027ZM1631.31 147.109C1631.31 150.365 1633.23 151.992 1637.07 151.992H1643.71V208.73C1643.71 220.71 1647 228.62 1653.58 232.461C1660.15 236.302 1668.1 238.223 1677.41 238.223C1681.18 238.223 1684.93 237.799 1688.64 236.953C1692.41 236.172 1695.38 235.293 1697.52 234.316C1699.8 233.275 1700.65 231.647 1700.06 229.434L1697.13 218.301C1696.42 215.762 1694.92 215.013 1692.64 216.055C1691.21 216.706 1689.22 217.389 1686.68 218.105C1684.14 218.757 1681.87 219.082 1679.85 219.082C1675.88 219.082 1673.4 217.65 1672.43 214.785C1671.51 211.855 1671.06 207.07 1671.06 200.43V151.992H1686.88C1690.72 151.992 1692.64 150.365 1692.64 147.109V137.344C1692.64 134.089 1690.72 132.461 1686.88 132.461H1671.06V110C1671.06 106.094 1669.11 104.141 1665.2 104.141H1658.36C1656.41 104.141 1654.72 105.378 1653.29 107.852L1645.77 121.035C1644.4 123.444 1643.71 126.113 1643.71 129.043V132.461H1637.07C1633.23 132.461 1631.31 134.089 1631.31 137.344V147.109ZM1725.26 144.766C1717.05 154.271 1712.95 167.259 1712.95 183.73C1712.95 200.202 1716.92 213.19 1724.87 222.695C1732.81 232.201 1746.12 236.953 1764.81 236.953C1776.33 236.953 1784.76 235.781 1790.1 233.438C1795.44 231.094 1800.1 227.546 1804.07 222.793C1806.8 219.538 1806.25 216.738 1802.41 214.395L1792.64 208.438C1789.39 206.484 1786.65 206.94 1784.44 209.805C1782.48 212.279 1780.08 214.232 1777.21 215.664C1774.35 217.096 1770.21 217.812 1764.81 217.812C1759.14 217.812 1754.16 216.413 1749.87 213.613C1745.57 210.814 1742.9 204.01 1741.86 193.203H1806.31C1809.96 193.203 1811.78 191.25 1811.78 187.344C1811.78 167.422 1807.55 152.969 1799.09 143.984C1790.62 135 1777.67 130.508 1760.22 130.508C1745.18 130.508 1733.53 135.26 1725.26 144.766ZM1784.44 173.672H1741.96C1742.28 166.25 1744.24 160.423 1747.82 156.191C1751.4 151.895 1756.25 149.746 1762.37 149.746C1770.05 149.746 1775.65 151.992 1779.16 156.484C1782.68 160.911 1784.44 166.641 1784.44 173.672ZM1903.77 227.676C1903.77 232.559 1906.05 235 1910.61 235H1925.45C1930.01 235 1932.29 232.559 1932.29 227.676V147.012C1932.29 143.105 1932.13 139.199 1931.8 135.293H1932.48L1960.71 227.09C1962.33 232.363 1965.13 235 1969.11 235H1985.71C1989.68 235 1992.48 232.363 1994.11 227.09L2022.33 135.293H2023.01C2022.69 139.199 2022.52 143.105 2022.52 147.012V227.676C2022.52 232.559 2024.8 235 2029.36 235H2044.2C2048.76 235 2051.04 232.559 2051.04 227.676V102.285C2051.04 97.4023 2048.76 94.9609 2044.2 94.9609H2015.88C2012.11 94.9609 2009.4 97.5651 2007.78 102.773L1981.31 188.418C1980.14 192.129 1979.33 195.189 1978.87 197.598C1978.42 199.941 1978.02 202.741 1977.7 205.996H1977.11C1976.79 202.741 1976.4 199.941 1975.94 197.598C1975.49 195.189 1974.67 192.129 1973.5 188.418L1947.04 102.773C1945.41 97.5651 1942.71 94.9609 1938.93 94.9609H1910.61C1906.05 94.9609 1903.77 97.4023 1903.77 102.285V227.676ZM2093.13 179.336C2080.69 185.195 2074.48 194.635 2074.48 207.656C2074.48 216.706 2077.24 223.867 2082.78 229.141C2088.31 234.349 2096.42 236.953 2107.09 236.953C2111.59 236.953 2116.5 236.107 2121.84 234.414C2127.24 232.656 2131.87 229.922 2135.71 226.211H2135.9V229.141C2135.9 233.047 2137.66 235 2141.18 235H2157.19C2161.1 235 2163.05 233.047 2163.05 229.141V167.52C2163.05 155.345 2159.41 146.133 2152.11 139.883C2144.89 133.633 2134.5 130.508 2120.96 130.508C2112.95 130.508 2106.44 131.191 2101.43 132.559C2096.42 133.861 2092.38 135.26 2089.32 136.758C2086.33 138.255 2083.69 140.013 2081.41 142.031C2078.42 144.635 2077.93 147.174 2079.95 149.648L2088.05 159.609C2090 161.953 2092.48 161.823 2095.47 159.219C2097.17 157.786 2099.05 156.387 2101.14 155.02C2103.29 153.587 2105.79 152.35 2108.66 151.309C2111.59 150.202 2114.94 149.648 2118.71 149.648C2124.05 149.648 2128.22 150.885 2131.21 153.359C2134.21 155.833 2135.71 160.065 2135.71 166.055V169.961C2119.76 170.352 2105.56 173.477 2093.13 179.336ZM2104.75 213.027C2103.84 211.335 2103.38 209.349 2103.38 207.07C2103.38 204.206 2104.16 201.732 2105.73 199.648C2107.35 197.565 2110.02 195.547 2113.73 193.594C2117.45 191.641 2124.77 190.046 2135.71 188.809V210C2131.87 213.385 2128.38 215.534 2125.26 216.445C2122.13 217.357 2118.91 217.812 2115.59 217.812C2113.18 217.812 2111 217.422 2109.05 216.641C2107.09 215.859 2105.66 214.655 2104.75 213.027ZM2196.74 144.668C2188.41 154.108 2184.24 167.129 2184.24 183.73C2184.24 200.332 2188.41 213.353 2196.74 222.793C2205.08 232.233 2217.87 236.953 2235.12 236.953C2246.64 236.953 2255.43 235.13 2261.49 231.484C2267.61 227.839 2271.94 224.128 2274.48 220.352C2276.89 216.771 2276.72 213.906 2273.99 211.758L2264.91 204.629C2262.17 202.48 2259.57 202.904 2257.09 205.898C2254.23 209.414 2251.17 212.279 2247.91 214.492C2244.66 216.706 2240.39 217.812 2235.12 217.812C2227.76 217.812 2222.26 215.241 2218.62 210.098C2214.97 204.889 2213.15 196.1 2213.15 183.73C2213.15 171.361 2214.97 162.604 2218.62 157.461C2222.26 152.253 2227.76 149.648 2235.12 149.648C2239.74 149.648 2243.62 150.625 2246.74 152.578C2249.87 154.531 2251.98 156.354 2253.09 158.047C2255.3 161.497 2257.88 162.246 2260.8 160.293L2271.16 153.457C2273.83 151.699 2274.15 149.29 2272.13 146.23C2268.75 141.087 2264.26 137.181 2258.66 134.512C2253.06 131.842 2245.21 130.508 2235.12 130.508C2217.87 130.508 2205.08 135.228 2196.74 144.668ZM2295.77 229.141C2295.77 233.047 2297.72 235 2301.62 235H2317.25C2321.16 235 2323.11 233.047 2323.11 229.141V190.664C2323.11 173.932 2324.83 162.93 2328.29 157.656C2331.74 152.318 2336.88 149.648 2343.71 149.648C2350.16 149.648 2354.36 151.504 2356.31 155.215C2358.27 158.926 2359.24 167.878 2359.24 182.07V229.141C2359.24 233.047 2361.2 235 2365.1 235H2380.73C2384.63 235 2386.59 233.047 2386.59 229.141V175.039C2386.59 158.112 2383.27 146.458 2376.62 140.078C2369.98 133.698 2361.59 130.508 2351.43 130.508C2344.92 130.508 2339.35 131.484 2334.73 133.438C2330.11 135.326 2326.3 138.841 2323.3 143.984H2322.72C2322.98 141.38 2323.11 138.776 2323.11 136.172V96.7188C2323.11 92.8125 2321.16 90.8594 2317.25 90.8594H2301.62C2297.72 90.8594 2295.77 92.8125 2295.77 96.7188V229.141ZM2412.95 229.141C2412.95 233.047 2414.91 235 2418.81 235H2434.44C2438.34 235 2440.3 233.047 2440.3 229.141V138.32C2440.3 134.414 2438.34 132.461 2434.44 132.461H2418.81C2414.91 132.461 2412.95 134.414 2412.95 138.32V229.141ZM2412.95 111.562C2412.95 115.469 2414.91 117.422 2418.81 117.422H2434.44C2438.34 117.422 2440.3 115.469 2440.3 111.562V99.0625C2440.3 95.1562 2438.34 93.2031 2434.44 93.2031H2418.81C2414.91 93.2031 2412.95 95.1562 2412.95 99.0625V111.562ZM2466.86 229.141C2466.86 233.047 2468.81 235 2472.72 235H2488.34C2492.25 235 2494.2 233.047 2494.2 229.141V190.664C2494.2 173.932 2495.93 162.93 2499.38 157.656C2502.83 152.318 2507.97 149.648 2514.81 149.648C2521.25 149.648 2525.45 151.504 2527.41 155.215C2529.36 158.926 2530.34 167.878 2530.34 182.07V229.141C2530.34 233.047 2532.29 235 2536.2 235H2551.82C2555.73 235 2557.68 233.047 2557.68 229.141V175.039C2557.68 158.112 2554.36 146.458 2547.72 140.078C2541.08 133.698 2532.68 130.508 2522.52 130.508C2516.01 130.508 2510.45 131.484 2505.82 133.438C2501.2 135.326 2497.39 138.841 2494.4 143.984H2494.01V138.32C2494.01 134.414 2492.05 132.461 2488.15 132.461H2472.72C2468.81 132.461 2466.86 134.414 2466.86 138.32V229.141ZM2590.88 144.766C2582.68 154.271 2578.58 167.259 2578.58 183.73C2578.58 200.202 2582.55 213.19 2590.49 222.695C2598.43 232.201 2611.75 236.953 2630.43 236.953C2641.96 236.953 2650.39 235.781 2655.73 233.438C2661.07 231.094 2665.72 227.546 2669.69 222.793C2672.43 219.538 2671.87 216.738 2668.03 214.395L2658.27 208.438C2655.01 206.484 2652.28 206.94 2650.06 209.805C2648.11 212.279 2645.7 214.232 2642.84 215.664C2639.97 217.096 2635.84 217.812 2630.43 217.812C2624.77 217.812 2619.79 216.413 2615.49 213.613C2611.2 210.814 2608.53 204.01 2607.48 193.203H2671.94C2675.58 193.203 2677.41 191.25 2677.41 187.344C2677.41 167.422 2673.17 152.969 2664.71 143.984C2656.25 135 2643.29 130.508 2625.84 130.508C2610.8 130.508 2599.15 135.26 2590.88 144.766ZM2650.06 173.672H2607.58C2607.91 166.25 2609.86 160.423 2613.44 156.191C2617.02 151.895 2621.87 149.746 2627.99 149.746C2635.67 149.746 2641.27 151.992 2644.79 156.484C2648.3 160.911 2650.06 166.641 2650.06 173.672ZM716 283.906V308.344C716 315.635 717.542 320.75 720.625 323.688C723.708 326.604 727.906 328.062 733.219 328.062C738.531 328.062 742.729 326.604 745.812 323.688C748.896 320.75 750.438 315.635 750.438 308.344V283.906C750.438 282.76 749.708 282.188 748.25 282.188H743.5C742.042 282.188 741.312 282.76 741.312 283.906V308.031C741.312 313.656 740.479 317.177 738.812 318.594C737.167 319.99 735.302 320.688 733.219 320.688C731.135 320.688 729.26 319.99 727.594 318.594C725.948 317.177 725.125 313.656 725.125 308.031V283.906C725.125 282.76 724.396 282.188 722.938 282.188H718.188C716.729 282.188 716 282.76 716 283.906ZM759.688 325.125C759.688 326.375 760.312 327 761.562 327H766.562C767.812 327 768.438 326.375 768.438 325.125V312.812C768.438 307.458 768.99 303.938 770.094 302.25C771.198 300.542 772.844 299.688 775.031 299.688C777.094 299.688 778.438 300.281 779.062 301.469C779.688 302.656 780 305.521 780 310.062V325.125C780 326.375 780.625 327 781.875 327H786.875C788.125 327 788.75 326.375 788.75 325.125V307.812C788.75 302.396 787.688 298.667 785.562 296.625C783.438 294.583 780.75 293.562 777.5 293.562C775.417 293.562 773.635 293.875 772.156 294.5C770.677 295.104 769.458 296.229 768.5 297.875H768.375V296.062C768.375 294.812 767.75 294.188 766.5 294.188H761.562C760.312 294.188 759.688 294.812 759.688 296.062V325.125ZM797.188 325.125C797.188 326.375 797.812 327 799.062 327H804.062C805.312 327 805.938 326.375 805.938 325.125V296.062C805.938 294.812 805.312 294.188 804.062 294.188H799.062C797.812 294.188 797.188 294.812 797.188 296.062V325.125ZM797.188 287.5C797.188 288.75 797.812 289.375 799.062 289.375H804.062C805.312 289.375 805.938 288.75 805.938 287.5V283.5C805.938 282.25 805.312 281.625 804.062 281.625H799.062C797.812 281.625 797.188 282.25 797.188 283.5V287.5ZM811.5 298.875C811.5 299.917 812.115 300.438 813.344 300.438H815.469V318.594C815.469 322.427 816.521 324.958 818.625 326.188C820.729 327.417 823.271 328.031 826.25 328.031C827.458 328.031 828.656 327.896 829.844 327.625C831.052 327.375 832 327.094 832.688 326.781C833.417 326.448 833.688 325.927 833.5 325.219L832.562 321.656C832.333 320.844 831.854 320.604 831.125 320.938C830.667 321.146 830.031 321.365 829.219 321.594C828.406 321.802 827.677 321.906 827.031 321.906C825.76 321.906 824.969 321.448 824.656 320.531C824.365 319.594 824.219 318.062 824.219 315.938V300.438H829.281C830.51 300.438 831.125 299.917 831.125 298.875V295.75C831.125 294.708 830.51 294.188 829.281 294.188H824.219V287C824.219 285.75 823.594 285.125 822.344 285.125H820.156C819.531 285.125 818.99 285.521 818.531 286.312L816.125 290.531C815.688 291.302 815.469 292.156 815.469 293.094V294.188H813.344C812.115 294.188 811.5 294.708 811.5 295.75V298.875ZM838.375 294.188C837.125 294.188 836.781 295 837.344 296.625L847.781 327L847.688 327.469C847.396 328.615 846.802 329.99 845.906 331.594C845.031 333.198 843.75 334 842.062 334C841.5 334 840.896 333.896 840.25 333.688C839.375 333.417 838.844 333.729 838.656 334.625L837.969 338.062C837.781 338.979 838.083 339.521 838.875 339.688C840.25 339.979 841.812 340.125 843.562 340.125C846.75 340.125 849.24 339.083 851.031 337C852.823 334.917 854.333 332.021 855.562 328.312L866.094 296.625C866.635 295 866.292 294.188 865.062 294.188H859.469C858.51 294.188 857.885 294.719 857.594 295.781L853.125 312.375C852.604 314.271 852.281 315.552 852.156 316.219C852.052 316.865 851.875 317.74 851.625 318.844H851.438C851.438 318.49 851.344 317.677 851.156 316.406C850.99 315.115 850.792 314.062 850.562 313.25L845.844 295.781C845.552 294.719 844.927 294.188 843.969 294.188H838.375ZM892.938 324.656C892.938 326.219 893.667 327 895.125 327H899.875C901.333 327 902.062 326.219 902.062 324.656V308.562H917.281C918.844 308.562 919.625 307.885 919.625 306.531V302.844C919.625 301.49 918.844 300.812 917.281 300.812H902.062V289.938H919.844C921.406 289.938 922.188 289.26 922.188 287.906V284.219C922.188 282.865 921.406 282.188 919.844 282.188H895.125C893.667 282.188 892.938 282.969 892.938 284.531V324.656ZM928.938 325.125C928.938 326.375 929.562 327 930.812 327H935.812C937.062 327 937.688 326.375 937.688 325.125V313.75C937.688 309.167 938.344 305.677 939.656 303.281C940.969 300.885 942.625 299.688 944.625 299.688C945.125 299.688 945.646 299.781 946.188 299.969C947.125 300.302 947.688 300.052 947.875 299.219L948.75 295.5C948.917 294.771 948.635 294.271 947.906 294C947.135 293.708 946.156 293.562 944.969 293.562C943.24 293.562 941.74 294.073 940.469 295.094C939.198 296.115 938.292 297.292 937.75 298.625H937.625V296.062C937.625 294.812 937 294.188 935.75 294.188H930.812C929.562 294.188 928.938 294.812 928.938 296.062V325.125ZM957.719 309.188C953.74 311.062 951.75 314.083 951.75 318.25C951.75 321.146 952.635 323.438 954.406 325.125C956.177 326.792 958.771 327.625 962.188 327.625C963.625 327.625 965.198 327.354 966.906 326.812C968.635 326.25 970.115 325.375 971.344 324.188H971.406V325.125C971.406 326.375 971.969 327 973.094 327H978.219C979.469 327 980.094 326.375 980.094 325.125V305.406C980.094 301.51 978.927 298.562 976.594 296.562C974.281 294.562 970.958 293.562 966.625 293.562C964.062 293.562 961.979 293.781 960.375 294.219C958.771 294.635 957.479 295.083 956.5 295.562C955.542 296.042 954.698 296.604 953.969 297.25C953.01 298.083 952.854 298.896 953.5 299.688L956.094 302.875C956.719 303.625 957.51 303.583 958.469 302.75C959.01 302.292 959.615 301.844 960.281 301.406C960.969 300.948 961.771 300.552 962.688 300.219C963.625 299.865 964.698 299.688 965.906 299.688C967.615 299.688 968.948 300.083 969.906 300.875C970.865 301.667 971.344 303.021 971.344 304.938V306.188C966.24 306.312 961.698 307.312 957.719 309.188ZM961.438 319.969C961.146 319.427 961 318.792 961 318.062C961 317.146 961.25 316.354 961.75 315.688C962.271 315.021 963.125 314.375 964.312 313.75C965.5 313.125 967.844 312.615 971.344 312.219V319C970.115 320.083 969 320.771 968 321.062C967 321.354 965.969 321.5 964.906 321.5C964.135 321.5 963.438 321.375 962.812 321.125C962.188 320.875 961.729 320.49 961.438 319.969ZM988.625 325.125C988.625 326.375 989.25 327 990.5 327H995.5C996.75 327 997.375 326.375 997.375 325.125V312.812C997.375 307.458 997.979 303.938 999.188 302.25C1000.4 300.542 1001.73 299.688 1003.19 299.688C1004.75 299.688 1005.83 300.281 1006.44 301.469C1007.06 302.656 1007.38 305.521 1007.38 310.062V325.125C1007.38 326.375 1008 327 1009.25 327H1014.25C1015.5 327 1016.12 326.375 1016.12 325.125V312.812C1016.12 307.479 1016.73 303.958 1017.94 302.25C1019.15 300.542 1020.48 299.688 1021.94 299.688C1023.5 299.688 1024.58 300.281 1025.19 301.469C1025.81 302.656 1026.12 305.521 1026.12 310.062V325.125C1026.12 326.375 1026.75 327 1028 327H1033C1034.25 327 1034.88 326.375 1034.88 325.125V307.812C1034.88 302.396 1033.81 298.667 1031.69 296.625C1029.58 294.583 1026.99 293.562 1023.91 293.562C1021.61 293.562 1019.73 293.917 1018.25 294.625C1016.79 295.333 1015.16 296.865 1013.34 299.219H1013.22C1012.7 297.781 1011.74 296.479 1010.34 295.312C1008.97 294.146 1007.03 293.562 1004.53 293.562C1003.28 293.562 1001.94 293.948 1000.5 294.719C999.062 295.49 998.042 296.542 997.438 297.875H997.312V296.062C997.312 294.812 996.688 294.188 995.438 294.188H990.5C989.25 294.188 988.625 294.812 988.625 296.062V325.125ZM1045.5 298.125C1042.88 301.167 1041.56 305.323 1041.56 310.594C1041.56 315.865 1042.83 320.021 1045.38 323.062C1047.92 326.104 1052.18 327.625 1058.16 327.625C1061.84 327.625 1064.54 327.25 1066.25 326.5C1067.96 325.75 1069.45 324.615 1070.72 323.094C1071.59 322.052 1071.42 321.156 1070.19 320.406L1067.06 318.5C1066.02 317.875 1065.15 318.021 1064.44 318.938C1063.81 319.729 1063.04 320.354 1062.12 320.812C1061.21 321.271 1059.89 321.5 1058.16 321.5C1056.34 321.5 1054.75 321.052 1053.38 320.156C1052 319.26 1051.15 317.083 1050.81 313.625H1071.44C1072.6 313.625 1073.19 313 1073.19 311.75C1073.19 305.375 1071.83 300.75 1069.12 297.875C1066.42 295 1062.27 293.562 1056.69 293.562C1051.88 293.562 1048.15 295.083 1045.5 298.125ZM1064.44 307.375H1050.84C1050.95 305 1051.57 303.135 1052.72 301.781C1053.86 300.406 1055.42 299.719 1057.38 299.719C1059.83 299.719 1061.62 300.438 1062.75 301.875C1063.88 303.292 1064.44 305.125 1064.44 307.375ZM1078.78 294.188C1077.64 294.188 1077.29 295 1077.75 296.625L1085.88 324.906C1086.27 326.302 1087.03 327 1088.16 327H1093.81C1095 327 1095.76 326.302 1096.09 324.906L1100.62 306.375C1100.9 305.312 1101.08 304.458 1101.19 303.812C1101.31 303.167 1101.4 302.448 1101.44 301.656H1101.56C1101.6 302.448 1101.68 303.167 1101.78 303.812C1101.91 304.458 1102.1 305.312 1102.38 306.375L1106.91 324.906C1107.24 326.302 1108 327 1109.19 327H1114.84C1115.97 327 1116.73 326.302 1117.12 324.906L1125.25 296.625C1125.71 295 1125.36 294.188 1124.22 294.188H1118.94C1117.94 294.188 1117.31 294.719 1117.06 295.781L1112.84 314.094C1112.59 315.156 1112.38 316.177 1112.19 317.156C1112 318.135 1111.89 318.938 1111.84 319.562H1111.66C1111.61 318.938 1111.5 318.125 1111.31 317.125C1111.12 316.104 1110.91 315.094 1110.66 314.094L1106.22 295.781C1105.97 294.719 1105.34 294.188 1104.34 294.188H1098.66C1097.66 294.188 1097.03 294.719 1096.78 295.781L1092.34 314.094C1092.09 315.094 1091.88 316.104 1091.69 317.125C1091.5 318.125 1091.39 318.938 1091.34 319.562H1091.16C1091.11 318.938 1091 318.135 1090.81 317.156C1090.62 316.177 1090.41 315.156 1090.16 314.094L1085.94 295.781C1085.69 294.719 1085.06 294.188 1084.06 294.188H1078.78ZM1132.47 298.094C1129.74 301.115 1128.38 305.281 1128.38 310.594C1128.38 315.906 1129.74 320.073 1132.47 323.094C1135.22 326.115 1139.3 327.625 1144.72 327.625C1150.14 327.625 1154.21 326.115 1156.94 323.094C1159.69 320.073 1161.06 315.906 1161.06 310.594C1161.06 305.281 1159.69 301.115 1156.94 298.094C1154.21 295.073 1150.14 293.562 1144.72 293.562C1139.3 293.562 1135.22 295.073 1132.47 298.094ZM1139.44 319.031C1138.23 317.365 1137.62 314.552 1137.62 310.594C1137.62 306.635 1138.23 303.833 1139.44 302.188C1140.67 300.521 1142.43 299.688 1144.72 299.688C1147.01 299.688 1148.76 300.521 1149.97 302.188C1151.2 303.833 1151.81 306.635 1151.81 310.594C1151.81 314.552 1151.2 317.365 1149.97 319.031C1148.76 320.677 1147.01 321.5 1144.72 321.5C1142.43 321.5 1140.67 320.677 1139.44 319.031ZM1167.81 325.125C1167.81 326.375 1168.44 327 1169.69 327H1174.69C1175.94 327 1176.56 326.375 1176.56 325.125V313.75C1176.56 309.167 1177.22 305.677 1178.53 303.281C1179.84 300.885 1181.5 299.688 1183.5 299.688C1184 299.688 1184.52 299.781 1185.06 299.969C1186 300.302 1186.56 300.052 1186.75 299.219L1187.62 295.5C1187.79 294.771 1187.51 294.271 1186.78 294C1186.01 293.708 1185.03 293.562 1183.84 293.562C1182.11 293.562 1180.61 294.073 1179.34 295.094C1178.07 296.115 1177.17 297.292 1176.62 298.625H1176.5V296.062C1176.5 294.812 1175.88 294.188 1174.62 294.188H1169.69C1168.44 294.188 1167.81 294.812 1167.81 296.062V325.125ZM1192.38 325.125C1192.38 326.375 1193 327 1194.25 327H1199.25C1200.5 327 1201.12 326.375 1201.12 325.125V318.75L1205.09 313.969L1212.19 325.375C1212.85 326.458 1213.71 327 1214.75 327H1220.09C1221.74 327 1222.06 326.229 1221.06 324.688L1210.12 307.906L1219.56 296.5C1220.83 294.958 1220.51 294.188 1218.59 294.188H1213.47C1212.51 294.188 1211.7 294.615 1211.03 295.469L1201.12 308.219H1201C1201.08 307.385 1201.12 306.552 1201.12 305.719V282.75C1201.12 281.5 1200.5 280.875 1199.25 280.875H1194.25C1193 280.875 1192.38 281.5 1192.38 282.75V325.125Z" fill="url(#paint0_linear_1_89)"/>
<defs>
<linearGradient id="paint0_linear_1_89" x1="711" y1="222" x2="3013" y2="222" gradientUnits="userSpaceOnUse">
<stop stop-color="#B861EE"/>
<stop offset="1" stop-color="#693888"/>
</linearGradient>
</defs>
</svg>
